<svg id="Layer_1" xmlns="http://www.w3.org/2000/svg" viewBox="0 0 157.86 32.25"><rect x="1.21" y="1.12" width="156" height="30" fill="#fff"/><g><path d="M156.71,31.12c.06,.2,.21,.08,.18-.45l-.25-.38,.07,.84Z" fill="#202020"/><path d="M157.17,27.48c-.12-.63-.33-1.37-.56-.96,.24,.63,.14,.78,.42,1.46,.03,.54-.08,.94-.17,.85,.06,.19-.05,.84,.1,1.13,.19-.7,.2-1.59,.04-2.52,.05-.2,.12,0,.17,.04Z" fill="#202020"/><path d="M130.83,.77l.34,.03c-.09-.02-.21-.03-.34-.03Z" fill="#202020"/><path d="M98.14,.63c.25,0,.35-.03,.37-.05-.23,.02-.42,.03-.37,.05Z" fill="#202020"/><path d="M92.56,.36c.12,0,.22,.01,.33,.02-.13-.02-.25-.04-.33-.02Z" fill="#202020"/><path d="M130.83,.77l-.87-.08c-.06,.08,.45,.06,.87,.08Z" fill="#202020"/><path d="M156.58,20.21c.01,.18,.04,.34,.07,.47,0-.15-.02-.3-.03-.45-.01,0-.03-.01-.04-.03Z" fill="#202020"/><path d="M145.24,.57h.27c.08-.03,.15-.06,.22-.1l-.49,.1Z" fill="#202020"/><path d="M156.44,.53c-.39,0-.49,.2-.58,.29,.11-.09,.39-.13,.69-.14,.02-.04,0-.09-.12-.15Z" fill="#202020"/><path d="M157.43,17.73l.03,.31c0-.08-.02-.22-.03-.31Z" fill="#202020"/><path d="M137.32,.52s-.06-.06-.1-.08c0,.03,.04,.05,.1,.08Z" fill="#202020"/><path d="M144.4,30.13s0,.02,0,.04c.06-.02,.08-.04,0-.04Z" fill="#202020"/><path d="M157.21,31.17h-.18c-.02,.05-.04,.09-.04,.13l.22-.13Z" fill="#202020"/><path d="M82.35,.09s.03,0,.05,0c.27-.02,.12-.02-.05,0Z" fill="#202020"/><path d="M.34,13.74c.19-1.06,.24,1.73,.45,.13-.08,.15-.33-1.45-.45-.13Z" fill="#202020"/><path d="M156.6,19.92c0-.15,0-.3,0-.45,0,.21,0,.35,0,.45Z" fill="#202020"/><path d="M.79,13.87h0l.02-.17c0,.07-.01,.11-.02,.17Z" fill="#202020"/><path d="M58.82,.21s.14,.07,.24,.09c0-.02-.06-.05-.24-.09Z" fill="#202020"/><path d="M76.35,.51l-.43-.03c.17,.02,.31,.03,.43,.03Z" fill="#202020"/><path d="M49.71,.51c-.24-.02-.32-.05-.64-.02,.03,.01,.06,.02,.1,.03,.12-.03,.27-.04,.54,0Z" fill="#202020"/><path d="M40.24,.51c.05,.01,.12,.03,.17,.04,.09,0,.2,0,.3-.01l-.48-.03Z" fill="#202020"/><path d="M115.6,30.23c.21,.06,.34,.12,.44,.19-.15-.15,1.25-.2-.44-.19Z" fill="#202020"/><path d="M156.69,20.21c-.05-.06-.08-.14-.09-.28,0,.11,0,.21,.01,.32,.03,.03,.06,.03,.08-.03Z" fill="#202020"/><path d="M49.33,2.17l-1.51-.03c.42,.02,.97,.03,1.51,.03Z" fill="#202020"/><path d="M47.63,30.26l.35-.03c-.13,0-.26,0-.35,.03Z" fill="#202020"/><path d="M43.36,2.17c-.27-.07-.55-.12-.85-.15-.06,.02-.13,.03-.17,.05l1.02,.09Z" fill="#202020"/><path d="M116.04,30.42h0s0,0,0,0Z" fill="#202020"/><path d="M125.96,29.92c-1.43,0-.67,.27-.98,.43-1.71,.08-.79-.2-1.37-.35-1.07,.07-1.89,.33-2.69,.32-.06-.05-.21-.06-.03-.12-1.13,.22-3.35,.01-4.67,.29-.1-.02-.15-.05-.17-.07,.21,.14,.25,.28,.2,.38-.64,0-1.19,.18-1.44,0,.39,0,.43-.07,.61-.12l-.67,.08c-.61-.26,.92-.09,.92-.28-1.31,.08-2.84,.3-3.85,.23-.21-.25,2.35-.09,1.01-.31l1.56,.1c-1.19-.4,.95,.03-.15-.4-2.05-.07-2.29,.13-4.34,.06-.46,.14,.15,.21-.31,.35-2.91,.25-2.29-.64-4.42-.3-.55,.17-.77,.49-2.29,.32l.52-.29c-1.98-.03-1.13,.41-3.21,.22,.37-.11,1.56-.1,1.26-.13-1.35-.23-.95,.16-1.99,.16l-.21-.26c-2.11,.04-4.44,.22-6.78,.27,.13-.08,.53-.16-.02-.23-2.95,.13-6.3-.03-9.15-.18l-1.09,.22c-.25,0-.47-.1-.2-.14-1.11-.08-.06,.14-.59,.23-.63,.02-.83-.13-.43-.19-1.96,.19-5.58,.4-7.64,.17l.4-.07c-1.61-.09-1.81,.45-3.3,.25l.29-.04c-3.49-.1-7.34,.11-10-.23-.51,.32-3.45-.14-3.67,.3-1.99-.22-1.42-.3-4.22-.45-.75-.02-1.12,.28-2.04,.32l-.02-.23-1.26,.24-.67-.28-.87,.06c.35,.01,.74,.1,.68,.17-1.36,.1-3.31-.16-3.34-.28l-3.21,.2c.07-.09,.61-.12,1.03-.18-1.71,.24-.31-.24-1.88-.03,.21,.05-.11,.14-.15,.18-.78-.14-2.56-.14-3.88-.08l.25-.16c-2.38-.04-5.02,.08-7.69,.07,.96,.07,.74,.35-.05,.38l-.31-.24c-.51,.15,.82,.09-.22,.28-1-.03-.67-.28-.1-.36l-1.21,.08c-.07-.07,.21-.11,.29-.2-.5,.15-2.09-.25-2.81,.02l-.07-.07c-2.67,0-3.88,.08-6.06,.09-.04,.21-.89,.16-1.54,.33-1.6-.07-3.37-.23-5.3-.22-1.35,.1-.4,.18-1,.3-.1-.19-2.02-.17-1.03-.31-2.31,.03-2.95,.04-5.88,.19,.32,.08,.67,.11,.49,.18-.53,.03-1.21-.08-1.13-.17l.14-.02c-.44,.04-.9,.06-1.36,.06h-.44s-.3-.03-.3-.03c.01-.16,.03-.3,.05-.44,0-.04,.01-.04,.02-.12l.02-.25,.03-.5c.04-.67,.09-1.33,.13-1.97,.07-1.28,.09-2.46-.05-3.41l.02,.15-.21-2.71c.03-1.25,.14,.75,.26-.17-.32-2.92,.05-4.62-.17-7.03,.57-1.86-.04-6.61,.32-9.13l-.13,.15c-.13-.65,.08-.79,.11-1.27-.1,.07-.12,.71-.19,.3-.01-.67-.03-1.35-.04-2.05,.87,.01,1.76,.03,2.64,.04,1.17,.03,2.36,.07,3.54,.1,2.37,.07,4.74,.15,7.07,.22,2.06,.04,1.17-.69,3.77-.37l-.74,.25c4.17-.3,8.52,.01,12.6-.24-.24,.06-.25,.13-.65,.13,.86,.18,3.19,0,3.2-.14,.64,.02,.15,.13,.54,.21,.86,.11,2.17-.23,2.63-.05,.08,.03-.24,.06-.4,.07,.56-.09,2.62,.02,2.08-.19,1.53,.1,2.93-.09,4.15,.03,.8-.23,2.62,.11,2.87-.22-.11,.34,2.68,.27,3.65,.11-.32,.1,.84,.11,.46,.25,1.1,0,2.12-.07,1.92-.24,2.04,.41,4.09-.33,5.24,.19,3.28-.18,6.32-.31,9.27-.39-.11,.34-3.26,.03-3.14,.39,2.8-.14,4.42-.43,7.19-.35,.72,.05-.41,.15-.65,.2,2.8-.14,5.41,.03,7.9-.15,0,.03-.28,.07-.53,.09,.49-.01,1.14,.05,1.09-.1l-.48,.04c-.78-.22,1.95-.47,2.04-.58-.83,.44,2.46,.11,1.14,.67,.32-.03,.73-.1,.65-.2,.48,.03,.63,.09,.15,.21,1.76-.08,1.13-.25,2.73-.24,0,.07-.33,.1-.49,.19,.81-.14,1.62-.29,2.96-.23-.08,.04,.08,.1-.33,.1,2.31-.02,3.94-.39,6.47-.25-.75,.32,.86,.11,1,.39l1.36-.08-.55-.14c1.19,0,2.25-.2,3.28-.11l-.89,.12,2.24-.05-1.27-.11c1.21-.14-.13-.35,1.46-.28-.32,.03,1.19,0,1.82,.17h0c.59-.09,1.2-.18,2.08-.11,.23,.09-.18,.31-.04,.37,.58-.23,2.8-.06,3.53-.31-.25,.06-.26,.21-.18,.24l.49-.19c.55,.06,.63,.09,.54,.21,1.66,.03-.53-.36,1.45-.2-.15,.02-.08,.04-.4,.07,1.98,.08,3.83-.12,5.65-.03,.54,.28-1.59,.07-.98,.31,2.63-.05,5.44-.34,7.98-.27l-.47-.03c.35-.4,1.89,.2,3.18,0-.31,.03-.41,.22-.33,.18,1.74,.06,3.56-.1,6.2-.22l-.33,.1c1.03,.09,2.7,.05,3.81,.1,.33-.1,.96-.09,.58-.23,3.42,.58,6.52-.31,9.55,.17-.36,0-.86,.09-.58,.09l2.58-.09c-.2-.17-.34-.1-.88-.24,.33-.1,1.06-.18,1.7-.18-1.16,.11,.01,.28,.51,.38-.08-.05,.09-.11,.05-.17,1.35,.31,.23-.35,2.07-.14l-.1,.09c.69-.05,1.32-.17,2.07-.14,.31,.2-.73,.09-.78,.26,1.04-.01,2.06-.38,3.01-.18-.44,.06-1.08,.06-1.53,.11,1.03,.24,1.15,.18,1.91,.21h-.08s1.77,.1,1.77,.1l-.45-.06c.4-.16,.81-.23,1.23-.26,.38-.03,.72-.02,1.11-.02,0,.48,.02,.94,.15,1.67-.16-.88-.21-.86-.24-.77-.03,.07-.06,.43-.17,.35-.06,.45-.13,1.13-.2,.94,.18,.83-.14,1.39,.12,2.56-.07,.05,0,.89-.19,.7,.06,1.08,.13-.26,.22-.16,.25,1.67-.3,3.92,.04,6.32,.14,2.07,.39,2.45,.51,4.37-.12,.65-.27-.53-.27-.53-.11,1.05-.09,1.83,0,2.82-.06-.2-.12,0-.2,.31,.02,.79,.27,.53,.16,1.57-.08-.18-.21-.41-.29-.79,.07,.93,.2,1.85,.27,2.82-.13,.26-.19-.58-.28-.92,.06,1.08,.12,2.81,.32,3.14l.07-.7c0,.39-.17,.2-.21-.09-.16-.93,.07-1.34,.14-1.39l.05,.69c.43-.71-.07-2.76-.04-4.14l.31,.58-.26-1.42c.08-.3,.26-.51,.3,.17,.15-.99-.11-.88,.06-1.73,.03-.09,.04-.05,.05,.04l-.09-.97c.07,.19,.22-.16,.18,.43,.18-1.74-.23-2.8,0-3.46l.02,.15c-.11-2.41-.23-.23-.5-2.04l.56-1.22-.23-.24c0-.25,.03-.74,.12-.65-.16-.93-.1,.16-.25-.38,.21-1.2-.1-3.3,.27-3.57-.17-.43-.13,1.15-.26-.13,.39-.36-.07-1.48,.11-2.57,.2,.34,.1,1.37,.28,.28-.13-.24-.15-.6-.13-1,.02-.47,.08-1.07,.12-1.66-.36-.03-.74-.04-1.07-.02-.04,.07-.22,.11-.49,.13-.24,.02-.52,.03-.87,.04-.69,0-1.57-.01-2.34,.03,.1-.09-2.91-.15-4.35-.25l.04-.05c-.28,.28-1.76,.22-2.85,.28,.04-.16,.24-.23,.82-.3h-1.02c-.24,.09-.56,.14-1.22,.17l.26-.21c-1.35,.01-2.73,.24-4.47,.1-.1,.19,1.39,.53-.46,.66-.07-.1-.14-.28,.35-.32-.16,.01-.56,.09-.88,.04l.74-.17c-.79-.08-.41,.15-1.05,.13,.01-.15-.47-.11-.38-.22,.16-.01,.55,.06,.8,0-.71-.03-1.58-.11-1.86-.23,.06,.08,0,.2-.52,.22-1.35,.01-.46-.18-1.25-.25-.33,.1-1.19,0-1.21,.22-.4,0-.47-.1-.62-.16-.7,.1-3.27,.03-2.48,.26l.18,.02s-.07,0-.11,0h0c-2.3,.22-4.77-.13-7.05-.03v-.07c-1.36,.08-3.02,.05-3.99,.21-.4,0-.95-.14-.78-.22-1.04,.06-1.16,.14-2.66,.02,1.05-.13-.36-.11,1.07-.09-1.35-.06-1.66-.18-3.11,.02,.49-.19-1.02-.24-1.66-.18l.95,.14c-.72,.03-1.35,.01-1.99,0l.35-.25c-2.76-.3-4.98,.52-7.09,0-.73,.17,1.5,.12,.85,.33-1.27-.03-2.6-.39-2.99-.39-1.74-.14-1.62,.36-3.45,.27,.23,.09,.45,.33-.91,.41-1.27-.03-1.56-.37-.76-.44,.31,0,.45,.02,.44,.05,.41-.03,.95-.07,.45-.17l-.17,.09c-.63-.09-2.38-.08-1.97-.23-.96,.08-.41,.15,.3,.19-1.63-.13-2.55,0-4.23-.09,.27,.05,.51,.15,.25,.15-2.46-.11-1.08,.17-2.75,.21-.95-.14,.34-.32-1.34-.21-1.03-.09-.22-.24,.19-.31-1.53,.17-2.86-.11-3.74-.14l.81-.07c-.48,.04-.88,.04-1.28,.04l.46,.18c-.47-.03-.87-.03-.87-.11-.49,.12,.37,.3-.59,.46-.63-.09-1.92,.1-2.14-.14,1.99,.08-.22-.24,1.46-.28-.32,.03-.72,.03-1.19,0-.07-.03,.07-.05,.2-.06-1.9-.21-.87,.27-2.84,.26,.25-.13-.46-.25-.78-.22,.79,0,.38,.22-.35,.32-1.26-.1-1.37,.08-2.03,.07l.75,.05c-.26,.13-.89,.12-1.77,.16-.08-.1,.8-.07,.49-.12-.98,.23-2.21-.24-3.57-.08-.63-.09-.06-.25-.62-.31-1.53,.17-1.65-.18-3.26-.04,.46,.18,.54,.14-.59,.31l2.64-.13-1.69,.26c.8,0,1.68-.11,2.16-.08-.81,.15-.72,.1-.34,.25-1.09-.27-2.16,.16-3.42-.02l.04-.44c-1.89-.2-3.36,.23-5.82,.12l.79,.08c-.33,.18-1.52,.02-2.31,.1,.07-.15-.42-.2-.76-.29,.04,.11-1.8-.01-2.02,.29l-1.1-.19c-1.99-.08-2.27,.42-4.17,.37,.57-.16-.29-.27,.99-.38-.64,0-1.21-.03-1.22,.07-.37-.09-1.77,.2-2.35,.06-.27,.07-.36,.22-1.07,.21-.08-.03,0-.07,0-.07,0,.07-1.12,.1-.49,.26-1.96-.46-5.49,.03-7.2-.36-1.39,.05-3.07,.1-4.33,.11,.08-.04,0-.07,.24-.06-1.74-.14-1.07,.43-3.05,.27-1.01-.24,1.05-.13,.42-.22-.27-.49-2.39,.07-3.73-.22l.32-.03c-1.02-.17-2.49,.18-4.15,.15,0,0,.08-.04,0-.07-1.14,.25-3.3,.33-4.9,.4,.5-.19,.73-.1,.42-.29-.72,.03,.21,.31-1.22,.37-.47-.1-1.5-.2-1.64-.4h1.35c-.69-.28-1.75,0-2.46-.05l.09-.12c-2.07,.04-2.1,.33-4.33,.31l.23,.09c-1.22,.29-1.02-.16-2.23,.05l-.37-.3c-.8,.07-2.81,.29-4.25,.34,.82-.22,2.5-.33,3.54-.46-.8,0-2.71,.02-3.12,.17,.32-.03,.73-.1,1.04-.06-.98,.23-2.26,.35-3.85,.34,.09-.19-.32-.27-.95-.31-.32-.02-.69-.03-1.09-.04-.59,0-1.21-.01-1.81-.02-.01,.63-.03,1.23-.06,1.78-.03,.38-.09,.66-.16,.86,.21,2.81-.09,5.57-.06,8.84,.45-1.16,.01,.95,.47,.75,.03,.76,.02,1.05,0,1.12l-.27,2.31c-.13,.55-.1-.72-.2-.65-.04,1.67-.19,.7-.32,1.8,.16-.23,.23,.58,.17,1.53l.21-1.34c.24,2.33-.38,2.01-.14,4.36l-.14-.74c.09,1.21,0,4.45,.37,5.63-.05,.21-.18,.49-.21-.04-.01,.69,0,1.42,.03,2.16,.04,1.01,.07,2.04,.11,3.05,1.08-.03,2.14-.06,3.12-.09,.72-.01,1.39,0,1.97,.06l-.22,.11c.54-.03,.94-.21,1.61-.1-.03,.05-.22,.11,.03,.12,.28-.04,1.43-.2,2.14-.13l-.61,.13c2.81,.15,4.31-.31,6.67-.38,0,.33,2.2,.44,3.31,.49l-.04,.05c3.27,.04,5.56-.27,8.59-.4,1.88,.36,6.37,.15,9.39,.35-.46-.06,.08-.26,.61-.29,.71,.07,1.96-.23,1.85,.07h-.25c.53,.29,1.99,.21,3.13,.22l.19-.4c2.98,.58,7.8-.21,9.43,.3,.72-.1,1.61-.1,2.32-.2l-.04,.21c1.99,.05,2.98,.08,5.45,.03l-.5,.15c1.39,.01,1.75-.61,3.03-.62l.39,.32c2.42,0,4.87,.27,7.26-.01-.04,.05-.11,.14-.5,.15,1.14,0,4.41,.21,3.99-.22,.03,.28,2.5,.03,3.81-.1l-.2,.21c1.1-.27,1.14-.34,2.68-.41,.37,.03,.32,.17-.17,.11,1.22,.11,.95-.2,2.42-.09l-.55,.13c1.25,.02,1.15-.06,1.84-.21,.79-.08,2.38,.05,2.56,.24,.17-.12,.85-.27,1.59-.21,.1,.07-.17,.12-.3,.14,2.09,.14,3.11-.24,4.55-.04,.03,.07,.12,.1,.24,.12-1.66,0-3-.02-2.88-.03,0,.19,1.34,.23,.27,.49,1.08-.15,2.92-.46,4.23-.37,.06,.02,.13,.04,.17,.07l-.14,.02c.3,.02,.57,0,.83-.03,.42,.03,.68,.06,1.08,.06,.15,.16,1.54,.09,2.21,.09-.06-.21,.82-.18,0-.35,.11,.02-.13,.03-.57,.03-.1,0-.22,0-.29,.02,.01,0,.03-.01,.05-.02-.44,0-1.01,0-1.67,.01,.53-.11,1.08-.2,1.82-.08,.34-.14,.72-.27,.94-.34,.92,.29,2.68,.45,2.93,.63,2.05-.12,4.82-.08,6.11-.47,.58-.05,.67,.11,.89,.18-.34,.04-.74,.03-.92,.09,1.16-.1,3.45-.04,3.72-.32,1.47,.12-.82,.25,1.19,.21l-.27,.08c3.96,.44,6.44-.71,10.84-.14-.3-.03-.46-.05-.52-.1,5.01,.25,10.32-.23,15.26,.16,1.4,.08,1.56-.1,2.41-.23l.3,.23,1.47-.26c2.08-.19,3.6,.56,6.23,.19l-.34-.15c.95,.03,2.99-.09,2.84,.09,.1-.03,.31-.16,.68-.08l.03,.12,2.32-.2c1.8,.09-.28,.47,2.34,.49,.98-.05,2.78-.34,2.41-.42-.39,0-1.01-.07-1.04-.19l.89-.06c.16-.35,.85-.71-1.34-.95l-1.53,.21-.49-.17h1.29c-.73-.17-1.19-.03-1.71,.07-.12-.09-.34-.15-.64-.19l-1.5,.33c-.18-.14,.67-.27-.33-.35-.7,.15,.67,.31-.49,.41-.73-.16-.52-.29-1.37-.15-.12-.09,.06-.15,.4-.19-.76,.11-2.02,.05-2.41,.23-.76-.2-2.58,.05-2.5-.28-.24,.08-1.34,.26-2.05,.27,1.28-.4-2.62-.02-2.29-.45-.95,.36-3.42,.16-5.1,.36,.09-.03,.28-.09,.43-.07-.95-.03-1.22-.14-1.83-.2-.12,.29-1.59,.36-2.39,.54-1.16-.28,.7-.35,.34-.62,.06,.24-2.01,.24-1.62,.44-.89-.18-.76-.09-1.22-.33-.16,.37-.83,.06-1.56,.29-1.28-.18-.33-.34-1.74-.23-.67-.11,.58-.24,.58-.24Zm-33.5,.64h0c.29,0,.53-.01,.69-.02-.14,0-.34,0-.69,.02Zm-2.82,0c.34,0,.77,0,1.22,0,.1,.07,0,.15-.29,.14,.15-.05-.51-.09-.93-.15Zm5.95,1.46c-.45,.03-.59-.01-.66-.05,.21,0,.46-.01,.78-.03,.01,0,.04-.02,.05-.03-.04,.04-.09,.08-.18,.11Z" fill="#202020"/><path d="M96.4,31.74c.06,0,.1-.01,.18-.02-.09-.02-.18-.03-.27-.05-.05,.02-.11,.05-.16,.07,.08,0,.16,0,.24,0Z" fill="#202020"/><path d="M131.23,.8h-.06s.09,.01,.12,.03c-.04-.01-.04-.02-.07-.03Z" fill="#202020"/><polygon points="50.77 30.15 50.77 30.21 51.02 30.16 50.77 30.15" fill="#202020"/><path d="M146.73,1.53s.09,.04,.2,.05c0-.01-.1-.03-.2-.05Z" fill="#202020"/><path d="M153.43,1.57l.95,.08c-.41-.04-.71-.06-.95-.08Z" fill="#202020"/><path d="M156.65,2.48c.04,.07,.06,.08,.09,.1h0s-.09-.1-.09-.1Z" fill="#202020"/><path d="M76.7,1.92c-.07,0-.14,0-.2,0-.47,.04-.15,.02,.2,0Z" fill="#202020"/><path d="M101.07,1.43c-.26,.04-.51,.08-.78,.1,.43,.02,.77,.02,.78-.1Z" fill="#202020"/><path d="M49.49,2.18h0c-.06,0-.11,0-.17,0h.17Z" fill="#202020"/><path d="M99.15,1.53c.43,.04,.8,.03,1.13,0-.36-.01-.77-.04-1.13,0Z" fill="#202020"/><path d="M156.56,24.8v.25s.02,.01,.03,.03l-.03-.28Z" fill="#202020"/><path d="M156.58,25.08l.02,.28c0-.13,0-.24-.02-.28Z" fill="#202020"/><path d="M156.66,25.93l-.05-.58c0,.2,0,.45,.05,.58Z" fill="#202020"/><path d="M156.65,17.98l-.08-.08s.04,.07,.08,.08Z" fill="#202020"/><path d="M156.63,15.91c-.02,.49-.16,1.24-.12,1.93l.06,.06c-.11-.32,.18-1.52,.05-1.99Z" fill="#202020"/><path d="M157.58,7.27l-.06,1.74c.08-.3,.19-.7,.21,.09,.24-2.19-.18,.45-.15-1.82Z" fill="#202020"/><path d="M157.69,1.71c.04,1.31,.12-.03,.16,0-.07-.88-.09-1.01-.16,0Z" fill="#202020"/><path d="M119.08,.63l.09-.19c-.72,.03,0,.07-.09,.19Z" fill="#202020"/><polygon points="111.65 1.63 112.35 1.74 112.68 1.57 111.65 1.63" fill="#202020"/><polygon points="107.25 .26 107.57 .23 106.37 .3 107.25 .26" fill="#202020"/><path d="M41.92,.33l.22,.24c.49-.04,.59-.31-.22-.24Z" fill="#202020"/><path d="M13.72,.57c-.31-.12-1.1-.19-1.59-.08,.63,.02,1.27,.11,1.59,.08Z" fill="#202020"/><polygon points="43.29 32.05 42.72 32.13 43.79 32.06 43.29 32.05" fill="#202020"/></g></svg>